<svg width="260" height="238" viewBox="0 0 260 238" fill="none" xmlns="http://www.w3.org/2000/svg">
<path opacity="0.25" d="M188.989 223.045C188.989 223.887 157.962 224.57 119.688 224.57C81.4136 224.57 50.3867 223.887 50.3867 223.045C50.3867 222.203 81.4136 221.52 119.688 221.52C157.962 221.52 188.989 222.203 188.989 223.045Z" fill="#606060"/>
<path d="M171.73 73.7833C204.169 111.754 210.932 155.788 171.031 193.313C139.581 222.891 85.2985 213.308 52.859 175.337C20.4194 137.367 20.7322 83.8508 53.5572 55.8075C86.3823 27.7643 139.29 35.8118 171.73 73.7833Z" fill="#991740"/>
<path d="M175.445 186.56C208.269 158.515 208.909 105.385 176.873 67.89C144.838 30.3953 92.2586 22.735 59.434 50.7802C26.6095 78.8254 25.9699 131.956 58.0054 169.451C90.0409 206.945 142.62 214.606 175.445 186.56Z" fill="#FF9D00"/>
<path d="M166.887 176.545C194.869 152.637 195.415 107.344 168.105 75.3808C140.795 43.4173 95.9725 36.887 67.9904 60.7949C40.0082 84.7028 39.463 129.995 66.7726 161.959C94.0822 193.922 138.905 200.453 166.887 176.545Z" fill="white"/>
<path d="M159.012 167.329C182.538 147.229 182.996 109.149 160.036 82.2763C137.075 55.4032 99.3907 49.9128 75.8648 70.0132C52.339 90.1136 51.8807 128.193 74.8412 155.066C97.8016 181.94 135.486 187.43 159.012 167.329Z" fill="#FF9D00"/>
<path d="M150.829 157.749C169.724 141.605 170.092 111.022 151.652 89.4386C133.211 67.8555 102.945 63.446 84.0499 79.5896C65.1551 95.7333 64.787 126.317 83.2276 147.9C101.668 169.483 131.935 173.893 150.829 157.749Z" fill="white"/>
<path d="M142.567 148.08C156.786 135.931 157.063 112.915 143.185 96.6722C129.308 80.4295 106.53 77.111 92.311 89.26C78.0916 101.409 77.8146 124.425 91.6923 140.668C105.57 156.91 128.347 160.229 142.567 148.08Z" fill="#FF9D00"/>
<path d="M134.199 138.285C143.683 130.183 143.867 114.832 134.611 103.999C125.356 93.1656 110.164 90.9522 100.681 99.0551C91.1968 107.158 91.0121 122.509 100.268 133.342C109.524 144.175 124.715 146.388 134.199 138.285Z" fill="white"/>
<path d="M124.87 112.327C128.879 117.02 128.799 123.669 124.69 127.179C120.581 130.689 114.001 129.73 109.992 125.037C105.983 120.344 106.063 113.694 110.172 110.185C114.28 106.675 120.86 107.634 124.87 112.327Z" fill="#FF9D00"/>
<path d="M196.449 37.4266C196.449 37.4266 205.256 7.1875 209.801 7.1875C214.345 7.1875 216.217 17.346 216.217 17.346L196.449 37.4266Z" fill="#FFA523"/>
<path d="M197.236 38.2111C197.236 38.2111 227.475 29.4041 227.475 24.8595C227.475 20.3149 217.316 18.4434 217.316 18.4434L197.236 38.2111Z" fill="#FFA523"/>
<path d="M217.024 17.8379L113.43 118.68" stroke="#004A67" stroke-width="2.0972" stroke-miterlimit="10"/>
<path d="M223.047 80.2266C223.047 80.2266 243.83 56.562 247.947 58.4863C252.065 60.4106 249.458 70.4062 249.458 70.4062L223.047 80.2266Z" fill="#0070C0"/>
<path d="M223.426 81.2735C223.426 81.2735 254.549 86.1003 256.474 81.9832C258.398 77.8662 249.988 71.8691 249.988 71.8691L223.426 81.2735Z" fill="#0070C0"/>
<path d="M249.98 71.1953L113.43 118.682" stroke="#004A67" stroke-width="2.0972" stroke-miterlimit="10"/>
<path d="M226.878 143.671C226.878 143.671 257.005 134.486 259.493 138.29C261.981 142.093 254.504 149.221 254.504 149.221L226.878 143.671Z" fill="#61CECB"/>
<path d="M226.649 144.758C226.649 144.758 250.574 165.241 254.378 162.753C258.181 160.265 254.186 150.74 254.186 150.74L226.649 144.758Z" fill="#61CECB"/>
<path d="M254.531 150.164L113.43 118.68" stroke="#004A67" stroke-width="2.0972" stroke-miterlimit="10"/>
<path d="M205.622 189.359C205.622 189.359 236.803 193.796 237.447 198.296C238.09 202.794 228.299 206.085 228.299 206.085L205.622 189.359Z" fill="#A353EA"/>
<path d="M204.954 190.246C204.954 190.246 217.954 218.933 222.453 218.29C226.951 217.647 227.366 207.325 227.366 207.325L204.954 190.246Z" fill="#A353EA"/>
<path d="M227.923 206.952L113.43 118.68" stroke="#004A67" stroke-width="2.0972" stroke-miterlimit="10"/>
</svg>
