<svg width="50" height="51" viewBox="0 0 50 51" fill="none" xmlns="http://www.w3.org/2000/svg">
<rect y="0.707031" width="50" height="50" rx="25" fill="#D49F34" fill-opacity="0.25"/>
<path fill-rule="evenodd" clip-rule="evenodd" d="M13.3872 21.0401C13.1198 21.0401 12.9033 20.8236 12.9033 20.5562V14.5776C12.9033 14.3102 13.1198 14.0938 13.3872 14.0938H16.2905C16.5579 14.0938 16.7744 14.3102 16.7744 14.5776V18.2142L13.3872 21.0401Z" fill="#749490"/>
<path fill-rule="evenodd" clip-rule="evenodd" d="M37.0973 40.7074H12.9033C12.6359 40.7074 12.4194 40.491 12.4194 40.2236V23.2048C12.4194 22.9374 12.6359 22.7209 12.9033 22.7209C13.0447 22.7209 16.5249 20.1053 19.7708 17.6819C23.0418 15.2397 27.359 15.3203 30.6092 17.7903L36.4921 22.2609C36.8847 22.5593 37.5812 22.7116 37.5812 23.2048V40.2236C37.5812 40.491 37.3647 40.7074 37.0973 40.7074Z" fill="white"/>
<path fill-rule="evenodd" clip-rule="evenodd" d="M12.4194 24.863V23.2028C12.4194 22.9354 12.6359 22.7189 12.9033 22.7189C13.1542 22.7189 23.9135 14.4866 25.2297 13.7002L37.0973 22.7196C37.3647 22.7196 37.5812 22.9361 37.5812 23.2035V24.863L25.0003 14.8852L12.4194 24.863Z" fill="#E0E0E0"/>
<path fill-rule="evenodd" clip-rule="evenodd" d="M39.0327 25.2228C38.9245 25.2228 38.8184 25.1862 38.7323 25.1181L25.0002 14.227L11.268 25.1181C11.162 25.202 11.0258 25.2378 10.8924 25.217C10.7591 25.1962 10.6401 25.1203 10.5648 25.0077L9.59705 23.5561C9.45798 23.3482 9.50099 23.0679 9.69598 22.9109L24.6962 10.814C24.8733 10.6714 25.1264 10.6714 25.3034 10.814L40.3037 22.9109C40.4987 23.0679 40.5417 23.3475 40.4026 23.5561L39.4356 25.007C39.3603 25.1195 39.242 25.1955 39.108 25.2163C39.0829 25.2206 39.0578 25.2228 39.0327 25.2228Z" fill="#749490"/>
<path fill-rule="evenodd" clip-rule="evenodd" d="M25.0003 37.8234C24.872 37.8234 24.7487 37.7725 24.6584 37.6815L17.4117 30.4348C16.5134 29.5366 16.0195 28.3431 16.0195 27.0735C16.0195 25.804 16.5142 24.6097 17.4117 23.7122C18.3106 22.814 19.5042 22.3193 20.773 22.3193C22.0419 22.3193 23.2361 22.814 24.1344 23.7115L25.0003 24.5774L25.8663 23.7115C26.7645 22.8132 27.9581 22.3193 29.2277 22.3193C30.4972 22.3193 31.6915 22.814 32.589 23.7115C33.4872 24.609 33.9819 25.8025 33.9819 27.0728C33.9819 28.3431 33.4872 29.5373 32.589 30.4341L25.3423 37.6815C25.252 37.7725 25.1287 37.8234 25.0003 37.8234Z" fill="#749490"/>
<path fill-rule="evenodd" clip-rule="evenodd" d="M25.9682 33.4491H24.0327C23.7653 33.4491 23.5488 33.2326 23.5488 32.9652V31.5136H22.0972C21.8298 31.5136 21.6133 31.2971 21.6133 31.0297V29.0942C21.6133 28.8268 21.8298 28.6103 22.0972 28.6103H23.5488V27.1587C23.5488 26.8913 23.7653 26.6748 24.0327 26.6748H25.9682C26.2356 26.6748 26.4521 26.8913 26.4521 27.1587V28.6103H27.9037C28.1711 28.6103 28.3876 28.8268 28.3876 29.0942V31.0297C28.3876 31.2971 28.1711 31.5136 27.9037 31.5136H26.4521V32.9652C26.4521 33.2326 26.2356 33.4491 25.9682 33.4491Z" fill="white"/>
</svg>
