<svg width="51" height="51" viewBox="0 0 51 51" fill="none" xmlns="http://www.w3.org/2000/svg">
<path d="M0.5 25.7068C0.5 39.514 11.693 50.707 25.5002 50.707C39.3074 50.707 50.5 39.514 50.5 25.7068C50.5 11.9 39.3074 0.707031 25.5002 0.707031C11.693 0.707031 0.5 11.9 0.5 25.7068Z" fill="#D49F34" fill-opacity="0.25"/>
<path d="M33.5006 28.9448C32.7885 30.8217 32.9712 32.9257 33.1474 34.9599C33.3475 37.2706 33.5372 39.4523 32.3171 40.8285C31.3529 41.9156 29.5437 42.4895 26.7843 42.5828C24.0497 42.674 22.1506 42.0696 21.1402 40.7854C19.3166 38.465 20.5123 34.1776 21.3033 31.3406C21.5602 30.4209 21.7673 29.6787 21.8593 29.0983C21.7346 29.1049 21.609 29.1083 21.4826 29.1083C21.2187 29.1083 20.9623 29.0935 20.7124 29.0682C20.6143 29.5871 20.4168 30.2971 20.2105 31.0345C19.3585 34.093 18.069 38.7136 20.2485 41.4861C21.418 42.974 23.4379 43.7258 26.2584 43.7258C26.4428 43.7258 26.6308 43.7223 26.8226 43.7166C29.9096 43.6128 31.9848 42.9134 33.1661 41.5808C34.7094 39.84 34.4891 37.309 34.2776 34.8622C33.9946 31.5952 33.7238 28.4773 37.0048 26.6175C36.7676 26.324 36.574 25.9957 36.4292 25.6416C34.9976 26.4584 34.03 27.5511 33.5006 28.9448Z" fill="#303539"/>
<path d="M21.8594 29.0983C25.1565 28.9361 27.3508 26.7248 27.5867 25.6312C26.1682 26.7405 24.3393 27.3502 22.1346 27.4478C22.0648 27.4631 21.9911 27.4722 21.9166 27.4722C21.8795 27.4731 21.8424 27.4731 21.8049 27.4731C19.1336 27.4731 16.9733 26.7676 15.3847 25.3756C15.379 25.37 15.3738 25.3656 15.3681 25.3604C15.3603 25.3878 15.3555 25.4179 15.3555 25.4493C15.3555 26.4178 17.4442 28.7403 20.713 29.0691C20.9624 29.0944 21.2188 29.1092 21.4831 29.1092C21.6091 29.1084 21.7351 29.1044 21.8594 29.0983Z" fill="#C0BCB5"/>
<path d="M14.2357 19.1406C14.2292 18.9845 14.2235 18.8262 14.2235 18.6674C14.2235 16.1413 15.1999 13.4909 17.0392 12.4779C16.754 12.286 16.556 11.9642 16.5181 11.5918C15.7934 12.0065 15.1515 12.6344 14.6277 13.4525C13.7273 14.8606 13.2314 16.7134 13.2314 18.6679C13.2314 18.9099 13.2406 19.1489 13.2559 19.3861C13.4142 19.2465 13.6104 19.1502 13.8297 19.1192C13.9697 19.0996 14.1066 19.1088 14.2357 19.1406Z" fill="#303539"/>
<path d="M29.4625 19.1089C29.6823 19.1394 29.8794 19.2362 30.0377 19.3753C30.0525 19.1385 30.0617 18.8991 30.0617 18.6571C30.0617 16.7027 29.5655 14.8507 28.6654 13.4426C28.1421 12.6246 27.4989 11.9962 26.7746 11.5811C26.7371 11.9543 26.5387 12.2757 26.2544 12.468C28.0942 13.481 29.0705 16.1314 29.0705 18.6567C29.0705 18.8158 29.0648 18.9741 29.0579 19.1307C29.1869 19.0989 29.3234 19.0897 29.4625 19.1089Z" fill="#303539"/>
<path d="M21.8044 27.4733C21.8419 27.4733 21.879 27.4732 21.9161 27.4724C21.9906 27.4724 22.0643 27.4632 22.1341 27.4479C24.3389 27.3503 26.1677 26.7407 27.5863 25.6313C27.6953 25.5463 27.8043 25.4577 27.9098 25.3657C29.3126 24.1369 30.1852 22.4349 30.4347 20.4447C30.487 20.0248 30.3243 19.6275 30.0378 19.375C29.8795 19.2359 29.6824 19.1391 29.4627 19.1086C29.3236 19.0894 29.1871 19.0985 29.0575 19.1308C28.6141 19.2407 28.2591 19.6284 28.1959 20.1333C27.7986 23.3066 25.3161 25.1111 21.3923 25.0819C21.3897 25.0819 21.3876 25.0819 21.3845 25.0819C21.3771 25.0819 21.3705 25.0827 21.3644 25.0827C17.752 24.9493 15.4758 23.1697 15.0968 20.1438C15.0332 19.6388 14.6786 19.2516 14.2343 19.1408C14.1052 19.109 13.9687 19.0998 13.8292 19.1186C13.6094 19.1496 13.4132 19.2459 13.2553 19.3855C12.9684 19.6375 12.8057 20.0352 12.8585 20.4547C13.1058 22.4371 13.974 24.133 15.3663 25.3605C15.372 25.3662 15.3772 25.3705 15.3829 25.3758C16.9728 26.7677 19.1326 27.4733 21.8044 27.4733Z" fill="#DEDBD3"/>
<path d="M16.9583 12.4773C17.1362 12.599 17.3482 12.6701 17.5758 12.6701C18.2085 12.6701 19.2939 12.1285 19.2939 11.4613C19.2939 10.7941 18.2085 10.2529 17.5758 10.2529C16.9435 10.2529 16.4307 10.7945 16.4307 11.4613C16.4307 11.5053 16.4333 11.548 16.4372 11.5908C16.4751 11.9641 16.6731 12.2854 16.9583 12.4773Z" fill="#D49F35"/>
<path d="M26.8562 11.5806C26.861 11.5387 26.8636 11.4956 26.8636 11.4511C26.8636 10.7848 26.3508 10.2432 25.7181 10.2432C25.0853 10.2432 23.9995 10.7843 23.9995 11.4511C23.9995 12.1187 25.0853 12.6594 25.7181 12.6594C25.9453 12.6594 26.1576 12.5892 26.336 12.4676C26.6203 12.2752 26.8183 11.9539 26.8562 11.5806Z" fill="#D49F35"/>
<path d="M40.0525 20.2549C37.8918 20.2549 36.1401 22.0079 36.1401 24.1677C36.1401 24.6897 36.2439 25.1864 36.4279 25.6416C36.5727 25.9962 36.7663 26.3241 37.0036 26.6176C37.72 27.5093 38.8202 28.0801 40.0521 28.0801C42.2133 28.0801 43.9649 26.3284 43.9649 24.1673C43.9654 22.0079 42.2137 20.2549 40.0525 20.2549ZM40.0525 27.3746C38.2821 27.3746 36.8461 25.9395 36.8461 24.1677C36.8461 22.3969 38.2821 20.9618 40.0525 20.9618C41.8243 20.9618 43.2594 22.3969 43.2594 24.1677C43.2594 25.9395 41.8243 27.3746 40.0525 27.3746Z" fill="#DEDBD3"/>
<path d="M40.0531 20.9619C38.2826 20.9619 36.8467 22.397 36.8467 24.1679C36.8467 25.9396 38.2826 27.3747 40.0531 27.3747C41.8248 27.3747 43.2599 25.9396 43.2599 24.1679C43.2599 22.397 41.8248 20.9619 40.0531 20.9619ZM40.0531 25.6867C39.2141 25.6867 38.5356 25.0069 38.5356 24.1679C38.5356 23.3289 39.2145 22.6495 40.0531 22.6495C40.8925 22.6495 41.5719 23.3293 41.5719 24.1679C41.5723 25.0069 40.8925 25.6867 40.0531 25.6867Z" fill="#F4F0E6"/>
<path d="M40.0529 22.582C39.1772 22.582 38.4678 23.2924 38.4678 24.1676C38.4678 25.0432 39.1772 25.7531 40.0529 25.7531C40.9289 25.7531 41.6384 25.0432 41.6384 24.1676C41.6384 23.2924 40.9289 22.582 40.0529 22.582Z" fill="#303539"/>
</svg>
