<svg width="51" height="51" viewBox="0 0 51 51" fill="none" xmlns="http://www.w3.org/2000/svg">
<path d="M0.5 25.414C0.5 11.6053 11.6935 0.414062 25.5006 0.414062C39.3076 0.414062 50.5005 11.6053 50.5005 25.414C50.5005 39.2216 39.3076 50.4141 25.5006 50.4141C11.6935 50.4141 0.5 39.2216 0.5 25.414Z" fill="#D49F34" fill-opacity="0.25"/>
<path d="M37.497 21.6656H31.4251V15.5941C31.4251 13.4812 29.713 11.7695 27.6005 11.7695H25.3917H25.0432C22.9311 11.7695 21.2183 13.4812 21.2183 15.5941V21.666H15.146C13.0351 21.666 11.3223 23.3784 11.3223 25.4901V28.0482C11.3223 30.1603 13.0351 31.872 15.146 31.872H21.2183V37.9443C21.2183 40.0567 22.9311 41.7695 25.0432 41.7695H25.3917H27.6005C29.713 41.7695 31.4251 40.0567 31.4251 37.9443V31.872H37.497C39.6098 31.872 41.3219 30.1603 41.3219 28.0482V25.4901C41.3219 23.378 39.6098 21.6656 37.497 21.6656ZM31.2979 26.2142C31.0677 27.6189 29.3901 29.1975 28.0388 30.4684C28.0388 30.4684 27.3648 31.145 27.1623 31.3188C27.0103 31.4493 26.6797 31.7122 26.3219 31.7122C25.9641 31.7122 25.6338 31.4493 25.4814 31.3188C25.2786 31.145 24.6046 30.4684 24.6046 30.4684C23.2529 29.1971 21.5761 27.6193 21.3455 26.2142C21.1835 25.221 21.3414 24.402 21.8152 23.7803C22.2931 23.1526 23.0208 22.7945 24.0396 22.6855C24.1382 22.6759 24.2268 22.671 24.3162 22.671C25.0358 22.671 25.7636 22.9395 26.3211 23.3925C26.8802 22.9391 27.6072 22.671 28.3279 22.671C28.4166 22.671 28.5063 22.6759 28.6038 22.6855C29.6225 22.7945 30.3492 23.1526 30.8278 23.7803C31.302 24.402 31.4599 25.221 31.2979 26.2142Z" fill="#C8482B"/>
<path d="M28.6038 22.6854C28.506 22.6757 28.4166 22.6709 28.328 22.6709C27.6073 22.6709 26.8803 22.9393 26.3212 23.3924C25.7636 22.9389 25.0359 22.6709 24.3163 22.6709C24.2269 22.6709 24.138 22.6757 24.0397 22.6854C23.0209 22.7944 22.2932 23.1525 21.8153 23.7801C21.3419 24.4019 21.1839 25.2208 21.3456 26.214C21.5762 27.6191 23.2534 29.1973 24.6047 30.4682C24.6047 30.4682 25.2787 31.1448 25.4815 31.3187C25.6339 31.4492 25.9642 31.712 26.322 31.712C26.6797 31.712 27.01 31.4492 27.1624 31.3187C27.3648 31.1448 28.0388 30.4682 28.0388 30.4682C29.3898 29.197 31.0678 27.6184 31.298 26.214C31.46 25.2208 31.3021 24.4019 30.8279 23.7801C30.3493 23.1525 29.623 22.7944 28.6038 22.6854Z" fill="#F4F0E6"/>
</svg>
