<svg width="51" height="51" viewBox="0 0 51 51" fill="none" xmlns="http://www.w3.org/2000/svg">
<g clip-path="url(#clip0_262_2360)">
<path d="M25.1666 49.8282C38.6501 49.8282 49.5807 38.8977 49.5807 25.4141C49.5807 11.9306 38.6501 1 25.1666 1C11.683 1 0.752441 11.9306 0.752441 25.4141C0.752441 38.8977 11.683 49.8282 25.1666 49.8282Z" fill="#D49F34" fill-opacity="0.25"/>
<path fill-rule="evenodd" clip-rule="evenodd" d="M25.1255 26.6826H13.8237L17.4119 41.1041H32.8606L34.123 36.0303C33.9218 36.1898 33.7582 36.3375 33.6503 36.4451C33.6199 36.4761 33.5848 36.5033 33.5472 36.5252C31.4969 37.7223 29.4001 37.9135 28.2711 37.9134C27.777 37.9134 27.4681 37.8771 27.4291 37.8724C27.2718 37.8526 27.1322 37.76 27.0527 37.6218C26.9734 37.4841 26.9628 37.3168 27.025 37.17C27.3154 36.4848 27.5164 35.6851 27.6527 34.8425C26.0872 34.7513 24.835 34.2856 24.7768 34.2638C24.6505 34.2161 24.5479 34.1203 24.4924 33.9966C24.4376 33.8735 24.4329 33.734 24.4811 33.6077C25.5797 30.7248 25.7951 28.3993 25.1255 26.6826Z" fill="#7D44BF"/>
<path fill-rule="evenodd" clip-rule="evenodd" d="M20.901 24.0186H13.5526H13.0659C12.6116 24.0186 12.2417 24.3883 12.2417 24.8426C12.2418 25.297 12.6115 25.6668 13.0659 25.6668H13.1743H24.5748C23.6747 24.4259 22.4098 24.0774 22.1586 24.0186H20.901Z" fill="#7D44BF"/>
<path fill-rule="evenodd" clip-rule="evenodd" d="M15.0149 16.4136C13.5301 17.7377 12.739 18.5599 13.7503 20.0527C13.7861 20.1049 13.8111 20.1632 13.8249 20.2247C13.9328 20.6988 14.2113 22.0403 14.159 23.0026H20.2944C20.2421 22.0403 20.5205 20.6989 20.6283 20.2247C20.6423 20.1632 20.668 20.105 20.7031 20.0527C21.7144 18.5599 20.9233 17.7377 19.4384 16.4136C19.2082 16.2079 18.9715 15.9969 18.7453 15.7793H15.7081C15.4819 15.9968 15.2451 16.2079 15.0149 16.4136Z" fill="#7D44BF"/>
<path fill-rule="evenodd" clip-rule="evenodd" d="M16.4263 10.8613V12.6022H18.0269V10.8613H16.4263Z" fill="#7D44BF"/>
<path fill-rule="evenodd" clip-rule="evenodd" d="M15.6748 13.6182V14.7637H18.7781V13.6182H18.5348H15.9183H15.6748Z" fill="#7D44BF"/>
<path fill-rule="evenodd" clip-rule="evenodd" d="M32.0084 12.7003C32.1873 13.0901 32.1961 13.485 32.1563 13.7916L36.7789 15.0304L38.0918 13.9199L35.8232 11.6083L31.0331 10.3252L30.7774 11.2781L30.6807 11.6384C31.27 11.8168 31.6929 12.1285 31.9412 12.5686C31.9659 12.6124 31.9882 12.6563 32.0084 12.7003Z" fill="#7D44BF"/>
<path fill-rule="evenodd" clip-rule="evenodd" d="M28.5244 10.6999L29.7223 11.2905L30.0516 10.0623L28.7864 9.72363L28.5244 10.6999Z" fill="#7D44BF"/>
<path fill-rule="evenodd" clip-rule="evenodd" d="M30.2988 12.5859L28.5791 15.352L29.3332 15.9181L31.0885 13.9226C31.1285 13.8002 31.2403 13.3879 31.0541 13.0634C30.9534 12.889 30.7727 12.7521 30.5146 12.654C30.4479 12.6288 30.3759 12.606 30.2988 12.5859Z" fill="#7D44BF"/>
<path fill-rule="evenodd" clip-rule="evenodd" d="M32.4795 16.8447L29.3781 20.829L29.1128 21.8192C29.3305 21.8595 29.5487 21.9046 29.7663 21.9542C30.1153 22.0333 30.4523 22.1273 30.7771 22.2358C31.3912 22.4406 31.9613 22.6971 32.4809 23.0025H35.7238L35.8421 22.5613L35.1484 17.5598L32.4795 16.8447Z" fill="#7D44BF"/>
<path fill-rule="evenodd" clip-rule="evenodd" d="M33.123 15.1035L32.9067 15.908L33.8667 16.1653L33.8699 16.1661L35.2459 16.5346L35.4614 15.73L35.4054 15.7151L33.123 15.1035Z" fill="#7D44BF"/>
<path fill-rule="evenodd" clip-rule="evenodd" d="M28.669 27.0044C28.7035 27.2642 29.4547 33.0848 28.2107 36.8945H28.2404C29.23 36.8945 31.1421 36.7351 32.9815 35.6788C33.1668 35.5013 33.818 34.9063 34.6513 34.4782C34.6819 34.4584 34.7146 34.442 34.7488 34.4292C35.1634 34.2264 35.6189 34.0689 36.0823 34.0253C36.0399 32.6793 35.9484 31.3126 35.7126 30.0151C35.6915 29.9596 35.68 29.9001 35.6796 29.8392C35.4489 28.6437 35.0907 27.5111 34.5294 26.5132C34.4836 26.4619 34.448 26.4014 34.426 26.3346C33.8666 25.3978 33.1181 24.5876 32.1146 23.9663C32.1008 23.9594 32.0873 23.952 32.0741 23.944C31.3453 23.4975 30.4926 23.1609 29.5408 22.9445C29.1606 22.8585 28.7783 22.7864 28.4025 22.7315C28.3962 22.7306 28.3899 22.7295 28.3835 22.7283C26.8382 22.5029 24.8358 22.4716 23.2964 23.3525C24.0399 23.6977 25.0438 24.3645 25.737 25.6033C26.8192 27.5379 26.778 30.181 25.6159 33.4649C26.0976 33.6018 26.8938 33.7876 27.784 33.832C28.1121 30.6168 27.6682 27.1847 27.6616 27.1377C27.6247 26.8592 27.8203 26.604 28.0988 26.567C28.3767 26.5301 28.632 26.726 28.669 27.0044Z" fill="#7D44BF"/>
<path fill-rule="evenodd" clip-rule="evenodd" d="M35.8818 26.9961C35.9895 27.2501 36.0876 27.5097 36.1771 27.7738L36.4486 26.6826H35.7427C35.7905 26.7857 35.8369 26.8901 35.8818 26.9961Z" fill="#7D44BF"/>
<path fill-rule="evenodd" clip-rule="evenodd" d="M37.207 24.0186H33.8462C34.3565 24.4935 34.8075 25.0448 35.1952 25.6668H37.2071C37.6614 25.6668 38.0311 25.297 38.0311 24.8426C38.0311 24.3882 37.6614 24.0186 37.207 24.0186Z" fill="#7D44BF"/>
</g>
<defs>
<clipPath id="clip0_262_2360">
<rect width="50" height="50" fill="white" transform="translate(0.166504 0.414062)"/>
</clipPath>
</defs>
</svg>
