<svg width="51" height="51" viewBox="0 0 51 51" fill="none" xmlns="http://www.w3.org/2000/svg">
<path d="M0.5 25.414C0.5 11.6053 11.6935 0.414062 25.5006 0.414062C39.3076 0.414062 50.5005 11.6053 50.5005 25.414C50.5005 39.2216 39.3076 50.4141 25.5006 50.4141C11.6935 50.4141 0.5 39.2216 0.5 25.414Z" fill="#D49F34" fill-opacity="0.25"/>
<path d="M36.012 13.4141H26.5986H17.1858C15.4807 13.4141 14.0986 14.7971 14.0986 16.5013V35.1359C14.0986 36.841 15.4807 38.223 17.1858 38.223H26.5986H32.7912V35.0028C32.7912 33.2977 34.1732 31.9156 35.8784 31.9156L39.0986 31.7578V16.5008C39.0986 14.7971 37.7171 13.4141 36.012 13.4141ZM33.0114 26.3657C33.0114 27.2684 32.2796 28.0008 31.3764 28.0008H28.7811V30.5955C28.7811 31.4983 28.0492 32.2306 27.146 32.2306H26.2015H26.0528C25.1495 32.2306 24.4172 31.4983 24.4172 30.5955V28.0008H21.8219C20.9192 28.0008 20.1873 27.2684 20.1873 26.3657V25.2719C20.1873 24.3692 20.9192 23.6368 21.8219 23.6368H24.4172V21.0421C24.4172 20.1384 25.1495 19.407 26.0528 19.407H26.2015H27.146C28.0492 19.407 28.7811 20.1384 28.7811 21.0421V23.6368H31.3764C32.2796 23.6368 33.0114 24.3692 33.0114 25.2719V26.3657Z" fill="#C8482B"/>
<path d="M32.7852 34.9206V38.2216L39.0981 31.7568H35.9495C34.2015 31.7568 32.7852 33.1732 32.7852 34.9206Z" fill="#B7402C"/>
<path d="M31.3755 23.6371H28.7803V21.0423C28.7803 20.1386 28.0484 19.4072 27.1452 19.4072H26.2007H26.0519C25.1487 19.4072 24.4164 20.1386 24.4164 21.0423V23.6371H21.8211C20.9184 23.6371 20.1865 24.3694 20.1865 25.2721V26.3659C20.1865 27.2686 20.9184 28.001 21.8211 28.001H24.4164V30.5957C24.4164 31.4985 25.1487 32.2308 26.0519 32.2308H26.2007H27.1452C28.0484 32.2308 28.7803 31.4985 28.7803 30.5957V28.001H31.3755C32.2788 28.001 33.0106 27.2686 33.0106 26.3659V25.2721C33.0106 24.3699 32.2788 23.6371 31.3755 23.6371Z" fill="#F4F0E6"/>
</svg>
