<svg width="51" height="51" viewBox="0 0 51 51" fill="none" xmlns="http://www.w3.org/2000/svg">
<rect x="0.833496" y="0.414062" width="50" height="50" rx="25" fill="#D49F34" fill-opacity="0.25"/>
<path d="M31.0551 32.6676L26.3475 27.96L19.8291 34.4781L24.5367 39.1857L24.5399 39.1828C26.3475 40.8629 29.175 40.8246 30.9346 39.0649C32.6942 37.3056 32.7326 34.4781 31.0522 32.6705L31.0551 32.6676Z" fill="#F4F0E6"/>
<path d="M21.6397 23.252L21.6365 23.2552C19.8289 21.5748 17.0014 21.6135 15.2421 23.3728C13.4824 25.1321 13.4441 27.9597 15.1242 29.7672L15.121 29.7704L19.8286 34.4781L26.3469 27.96L21.6397 23.252Z" fill="#C8482B"/>
<path d="M27.1299 11.6426L27.1267 11.6458C25.3195 9.96543 22.4916 10.0041 20.7323 11.7634C18.9727 13.5231 18.9343 16.3503 20.6144 18.1582L20.6115 18.1614L25.3191 22.869L31.8372 16.3506L27.1299 11.6426Z" fill="#F4F0E6"/>
<path d="M36.5423 21.0614L36.5455 21.0582L31.8379 16.3506L25.3198 22.869L30.0271 27.5766L30.0303 27.5734C31.8379 29.2539 34.6654 29.2152 36.425 27.4559C38.184 25.6965 38.2227 22.869 36.5423 21.0614Z" fill="#C8482B"/>
</svg>
