<svg width="28" height="36" viewBox="0 0 28 36" fill="none" xmlns="http://www.w3.org/2000/svg">
<path fill-rule="evenodd" clip-rule="evenodd" d="M17.6816 21.3068C18.4301 21.7343 19.2702 22.2444 20.0839 22.8565C21.1455 23.2163 22.3231 23.7263 23.6765 24.4482C23.8817 24.5579 24.0954 24.6613 24.3124 24.7635C24.3425 24.5477 24.3514 24.3366 24.3396 24.1344C24.2643 22.8656 23.5098 23.3442 23.3115 23.4511C22.9523 23.6444 22.5231 23.4848 22.2102 23.1169C23.5231 22.459 24.2639 21.1605 24.2643 20.1093C24.2652 19.1549 23.6449 19.4808 23.45 19.5569C22.4632 19.9408 21.5102 18.0469 22.8705 16.6303C23.6109 15.9437 23.2361 15.4608 23.0142 15.2209C22.7622 14.9485 22.4877 14.7007 22.2232 14.4971C22.1457 14.6394 22.0854 14.7668 22.0108 14.8786C21.4695 17.4537 19.838 19.9806 17.6816 21.3068Z" fill="#604D3E"/>
<path fill-rule="evenodd" clip-rule="evenodd" d="M11.438 21.4359C11.4288 21.4307 11.4198 21.4252 11.4108 21.4199C11.4091 21.6483 11.4062 21.9085 11.4102 22.1886C11.4196 22.1872 11.4288 22.1857 11.4382 22.1845L11.438 21.4359Z" fill="#604D3E"/>
<path fill-rule="evenodd" clip-rule="evenodd" d="M8.85451 22.7914C9.59767 22.1612 10.6655 21.7467 11.4106 21.4205C9.47083 20.2209 7.7523 17.9177 7.07909 15.618C6.8884 15.4621 6.70424 15.1483 6.50871 14.6289C6.30348 14.8003 6.08666 15.0086 5.88902 15.2223C5.66672 15.4623 5.29187 15.9452 6.03209 16.6317C7.39283 18.0482 6.44002 19.9422 5.45285 19.5583C5.25858 19.4823 4.63805 19.1563 4.63847 20.1108C4.6391 21.162 5.37953 22.4604 6.69308 23.1183C6.37997 23.4864 5.95097 23.646 5.59129 23.4525C5.3928 23.3457 4.63847 22.867 4.56346 24.1358C4.55313 24.3145 4.55925 24.5015 4.58179 24.6919C4.74551 24.613 4.90691 24.5327 5.06347 24.4496C6.50217 23.6817 7.74219 23.1542 8.85451 22.7914Z" fill="#604D3E"/>
<path fill-rule="evenodd" clip-rule="evenodd" d="M14.4111 30.8812C14.4154 30.8733 14.419 30.8649 14.4233 30.8566C14.4197 30.8516 14.4158 30.8459 14.4126 30.8408C14.4117 30.8542 14.4111 30.8672 14.4111 30.8812Z" fill="#D6C5AC"/>
<path fill-rule="evenodd" clip-rule="evenodd" d="M11.4102 22.1874C11.4133 22.4136 11.4212 22.6529 11.4382 22.9001V22.1836C11.4288 22.1846 11.4196 22.186 11.4102 22.1874Z" fill="#D6C5AC"/>
<path fill-rule="evenodd" clip-rule="evenodd" d="M14.4004 30.124C14.4131 30.2794 14.4228 30.4398 14.4274 30.6073C14.4393 30.4477 14.4456 30.2794 14.4004 30.124Z" fill="#F4F0E6"/>
<path fill-rule="evenodd" clip-rule="evenodd" d="M14.4316 30.842C14.4316 30.8508 14.432 30.8587 14.432 30.8674C14.432 30.8583 14.432 30.8495 14.432 30.8408C14.432 30.8412 14.4316 30.8416 14.4316 30.842Z" fill="#F4F0E6"/>
<path fill-rule="evenodd" clip-rule="evenodd" d="M24.3133 24.7646C24.0961 24.6624 23.8824 24.5589 23.6774 24.4492C22.3241 23.7274 21.1462 23.2173 20.0849 22.8575C20.9439 23.6019 21.6291 24.4654 21.7648 25.256C20.8885 24.6405 20.2528 24.2395 18.2167 24.2221C18.7058 24.7358 19.391 26.0665 19.6578 27.2746C18.3942 27.2775 16.3263 28.1583 14.4322 30.8671C14.4295 30.863 14.4272 30.8596 14.4244 30.8563C14.42 30.8646 14.4162 30.873 14.4118 30.8809C14.4118 30.8671 14.4122 30.8539 14.4131 30.8405C12.5236 28.1524 10.4657 27.2775 9.20585 27.2746C9.47261 26.0665 10.1578 24.7358 10.6465 24.2221C8.61123 24.2395 7.97448 24.6405 7.09836 25.256C7.23806 24.4415 7.96099 23.5495 8.85544 22.791C7.74312 23.1539 6.50311 23.6816 5.0644 24.4492C4.90785 24.5324 4.74644 24.6129 4.58272 24.6916C2.89011 25.5028 0.908203 26.1466 0.908203 28.4475C0.908203 29.853 0.908203 32.0138 0.908203 33.6525C0.908203 34.9574 2.2915 35.9314 4.24075 35.9314C7.27367 35.9314 11.6764 35.9314 14.3705 35.9314C17.0656 35.9314 21.4677 35.9314 24.5004 35.9314C26.4501 35.9314 27.8334 34.9572 27.8334 33.6525C27.8334 32.0138 27.8334 29.853 27.8334 28.4475C27.8332 26.2165 25.9693 25.5438 24.3133 24.7646ZM23.2434 32.7113C23.2434 32.9486 23.0434 33.1414 22.7965 33.1414H22.0874V33.8235C22.0874 34.0612 21.8875 34.2537 21.6405 34.2537H21.3826H21.3417C21.0954 34.2537 20.8953 34.0612 20.8953 33.8235V33.1414H20.1858C19.9395 33.1414 19.7393 32.9486 19.7393 32.7113V32.4237C19.7393 32.186 19.9393 31.9939 20.1858 31.9939H20.8953V31.311C20.8953 31.0733 21.0952 30.8813 21.3417 30.8813H21.3826H21.6405C21.8875 30.8813 22.0874 31.0733 22.0874 31.311V31.9939H22.7965C23.0432 31.9939 23.2434 32.186 23.2434 32.4237V32.7113Z" fill="#F4F0E6"/>
<path fill-rule="evenodd" clip-rule="evenodd" d="M17.4528 21.4423C16.5287 21.9653 15.5147 22.2696 14.453 22.2696C13.3866 22.2696 12.3676 21.9621 11.4395 21.4346V22.1832V22.8997C11.489 23.6298 11.6175 24.4279 11.9388 25.1515C12.0747 25.4578 12.2446 25.7513 12.458 26.0198C13.4919 27.3227 14.2419 28.3217 14.4009 30.1217C14.4465 30.2771 14.4401 30.4454 14.4281 30.605C14.4306 30.6819 14.4319 30.7604 14.4321 30.8399C14.4321 30.8395 14.4325 30.8391 14.4325 30.8387C14.4391 28.5669 15.2429 27.4863 16.4067 26.0198C16.633 25.7346 16.81 25.4221 16.9501 25.0956C17.4851 23.8454 17.4604 22.3866 17.4528 21.4423Z" fill="#D6C5AC"/>
<path fill-rule="evenodd" clip-rule="evenodd" d="M11.4116 21.4192C11.4209 21.4245 11.4297 21.43 11.439 21.4352C12.3671 21.963 13.3859 22.2702 14.4525 22.2702C15.5143 22.2702 16.5282 21.966 17.4523 21.4429C17.5526 21.3866 17.5792 21.3691 17.6824 21.3069C19.8388 19.9807 21.4705 17.4635 22.0118 14.8882C21.2801 15.9842 20.7181 15.5899 20.6024 13.8295C20.5253 12.6591 19.8302 11.2909 18.4684 10.3279C18.6959 10.882 18.8523 11.4984 18.9206 12.177C18.9684 12.6481 18.8051 13.6535 17.4658 13.5431C14.4266 13.1032 11.7527 11.7488 10.2733 10.2598C8.73076 11.3544 8.22169 12.9584 8.24929 13.8755C8.28027 14.9032 7.72842 16.1621 7.08008 15.6321C7.75329 17.9324 9.26553 20.0961 11.2051 21.2963C11.2687 21.3383 11.2877 21.3561 11.4116 21.4192Z" fill="#EBDABC"/>
<path d="M14.4271 30.6082C14.4225 30.4407 14.4128 30.2802 14.3999 30.1249C14.2408 28.3249 13.4909 27.3258 12.457 26.023C12.2435 25.7544 12.0737 25.4607 11.9378 25.1547C11.6167 24.4311 11.4882 23.6328 11.4384 22.9029C11.4214 22.6556 11.4412 22.4303 11.4384 22.2046C11.434 21.9245 11.4363 21.9044 11.4384 21.6762C11.4389 21.6032 11.4384 21.4884 11.4384 21.4217C11.3053 21.3645 11.3491 21.3744 11.2461 21.3154C10.5006 21.6409 9.59812 22.1624 8.85474 22.7925C7.96029 23.551 7.23736 24.4432 7.09766 25.2575C7.97399 24.642 8.61075 24.241 10.6458 24.2236C10.1571 24.7373 9.4719 26.068 9.20515 27.2761C10.465 27.279 12.5229 28.1539 14.4124 30.842C14.4159 30.8471 14.4199 30.8528 14.4235 30.8578C14.4263 30.8611 14.4286 30.8645 14.4313 30.8686C14.4313 30.8599 14.4309 30.852 14.4309 30.8432C14.4309 30.7635 14.4296 30.685 14.4271 30.6082Z" fill="white"/>
<path d="M17.4519 21.4445C17.4595 22.3886 17.4842 23.8476 16.9492 25.0982C16.809 25.4245 16.6321 25.737 16.4058 26.0224C15.242 27.4888 14.4382 28.5695 14.4316 30.8413C14.4316 30.85 14.4316 30.8587 14.4316 30.8678C16.3257 28.1593 18.3936 27.2782 19.6572 27.2754C19.3904 26.0672 18.7052 24.7366 18.2162 24.2228C20.2522 24.2403 20.8881 24.6412 21.7643 25.2568C21.6286 24.4662 20.9433 23.6026 20.0843 22.8583C19.3323 22.206 17.682 21.3086 17.682 21.3086C17.682 21.3086 17.5444 21.3932 17.4519 21.4445Z" fill="white"/>
<path fill-rule="evenodd" clip-rule="evenodd" d="M7.08025 15.6335C7.7286 16.1635 8.28044 14.9046 8.24946 13.877C8.22186 12.9598 8.73093 11.356 10.2735 10.2612C11.7529 11.7503 14.4268 13.1047 17.466 13.5446C18.8053 13.6547 18.9686 12.6493 18.9207 12.1784C18.8525 11.4998 18.6961 10.8834 18.4685 10.3293C19.8303 11.2925 20.5255 12.6605 20.6026 13.8309C20.7183 15.5914 21.2802 15.9856 22.012 14.8896C22.0866 14.7783 22.1622 14.6517 22.2402 14.5093C22.2918 14.4148 22.3435 14.3138 22.3963 14.2059C22.9939 12.9781 22.2429 9.09177 19.8242 6.5497C19.4635 7.18228 18.7829 7.62603 17.7663 7.62603H14.6259H11.4849C10.2406 7.62603 9.49896 6.96141 9.23178 6.09864C9.22609 6.07836 9.21893 6.05686 9.2124 6.03516C6.60721 8.13834 5.64449 11.617 6.24817 13.8636C6.32908 14.1652 6.41126 14.4242 6.49491 14.646C6.69023 15.1646 6.88935 15.4774 7.08025 15.6335Z" fill="#604D3E"/>
<path d="M11.4842 7.62516H14.6252H17.7656C18.7823 7.62516 19.4629 7.1812 19.8236 6.54883C19.9047 6.40686 19.97 6.25576 20.0189 6.09777C20.2857 5.2354 20.9125 3.19833 20.9125 3.19833C21.2714 2.17067 20.6761 0.930664 19.4319 0.930664H14.6255H9.81859C8.57394 0.930664 7.9789 2.17067 8.33774 3.19833C8.33774 3.19833 8.93488 5.14007 9.21175 6.03408C9.21849 6.05578 9.22545 6.07728 9.23113 6.09756C9.49831 6.96033 10.24 7.62516 11.4842 7.62516ZM12.873 4.13371C12.873 3.89662 13.0734 3.70415 13.3199 3.70415H14.0289V3.02148C14.0289 2.78399 14.2291 2.59131 14.4758 2.59131H14.5163H14.7746C15.0209 2.59131 15.2209 2.78378 15.2209 3.02148V3.70415H15.9301C16.1769 3.70415 16.3768 3.89662 16.3768 4.13371V4.4213C16.3768 4.6588 16.1769 4.85147 15.9301 4.85147H15.2209V5.53394C15.2209 5.77124 15.0209 5.96411 14.7746 5.96411H14.5163H14.4758C14.2291 5.96411 14.0289 5.77124 14.0289 5.53394V4.85147H13.3199C13.0734 4.85147 12.873 4.659 12.873 4.4213V4.13371Z" fill="#F4F0E6"/>
<path d="M13.32 4.85H14.029V5.53248C14.029 5.76977 14.2292 5.96264 14.4759 5.96264H14.5164H14.7747C15.021 5.96264 15.221 5.76977 15.221 5.53248V4.85H15.9302C16.1769 4.85 16.3769 4.65753 16.3769 4.41983V4.13224C16.3769 3.89515 16.1769 3.70269 15.9302 3.70269H15.221V3.02001C15.221 2.78252 15.021 2.58984 14.7747 2.58984H14.5164H14.4759C14.2292 2.58984 14.029 2.78231 14.029 3.02001V3.70269H13.32C13.0734 3.70269 12.873 3.89515 12.873 4.13224V4.41983C12.873 4.65753 13.0734 4.85 13.32 4.85Z" fill="#C8482B"/>
<path d="M22.7964 31.9915H22.0874V31.3087C22.0874 31.071 21.8874 30.8789 21.6405 30.8789H21.3826H21.3417C21.0954 30.8789 20.8952 31.071 20.8952 31.3087V31.9915H20.1857C19.9394 31.9915 19.7393 32.1836 19.7393 32.4213V32.7089C19.7393 32.9462 19.9392 33.1391 20.1857 33.1391H20.8952V33.8211C20.8952 34.0588 21.0952 34.2513 21.3417 34.2513H21.3826H21.6405C21.8874 34.2513 22.0874 34.0588 22.0874 33.8211V33.1391H22.7964C23.0431 33.1391 23.2433 32.9462 23.2433 32.7089V32.4213C23.2433 32.1836 23.0434 31.9915 22.7964 31.9915Z" fill="#C8482B"/>
</svg>
