<svg width="51" height="51" viewBox="0 0 51 51" fill="none" xmlns="http://www.w3.org/2000/svg">
<rect x="0.166504" y="0.414062" width="50" height="50" rx="25" fill="#D49F34" fill-opacity="0.25"/>
<path d="M19.8128 18.5465C19.8191 18.2719 19.8835 18.0116 19.9957 17.7784C19.9756 17.7771 19.9556 17.7754 19.9353 17.7754H18.9676H17.2861H17.0215C16.5556 17.7754 16.1662 18.1064 16.0771 18.5462C16.0828 18.5465 16.0868 18.5465 16.0868 18.5465H19.8128Z" fill="#303539"/>
<path d="M19.8118 18.5892C19.8118 18.5748 19.8125 18.5608 19.8128 18.5468H16.0868C16.0868 18.5468 16.0825 18.5468 16.0772 18.5465C15.939 18.5408 14.1891 18.4974 13.416 19.7154C12.6111 20.984 12.3955 21.9911 11.1896 23.8524C10.2826 25.2151 10.1935 25.8464 10.1935 26.6613C10.1935 27.4762 10.1665 28.0424 10.1665 29.522C10.1665 31.0022 11.0912 31.5938 12.4086 31.5938C12.6361 31.5938 13.0706 31.5938 13.6332 31.5938C13.6722 30.0482 14.9366 28.8069 16.4916 28.8069C18.0466 28.8069 19.3109 30.0482 19.35 31.5938C19.5081 31.5938 19.6626 31.5938 19.8118 31.5938V18.5892ZM18.7393 25.7307C18.7393 25.7307 14.022 25.7156 13.5955 25.714C13.1687 25.7126 12.6582 25.2151 13.0462 24.3612C13.5668 23.3078 14.1718 22.1632 14.4317 21.7532C14.8905 21.0307 15.9533 21.0878 15.9533 21.0878H18.7573L18.7393 25.7307Z" fill="#B7402C"/>
<path d="M16.4916 28.7852C14.9243 28.7852 13.6499 30.0361 13.6109 31.5938C13.6102 31.6185 13.6089 31.6428 13.6089 31.6682C13.6089 33.2599 14.8993 34.5509 16.4916 34.5509C18.0837 34.5509 19.3744 33.2602 19.3744 31.6682C19.3744 31.6432 19.3731 31.6188 19.3724 31.5938C19.333 30.0361 18.059 28.7852 16.4916 28.7852ZM18.0239 31.6678C18.0239 32.5137 17.3379 33.1998 16.4916 33.1998C15.6451 33.1998 14.959 32.5137 14.959 31.6678C14.959 30.8216 15.6451 30.1352 16.4916 30.1352C17.3379 30.1356 18.0239 30.8216 18.0239 31.6678Z" fill="#22262A"/>
<path d="M16.4914 30.0977C15.6245 30.0977 14.9224 30.8004 14.9224 31.667C14.9224 32.5335 15.6245 33.2356 16.4914 33.2356C17.358 33.2356 18.0604 32.5332 18.0604 31.667C18.0604 30.8007 17.358 30.0977 16.4914 30.0977Z" fill="#303539"/>
<path d="M14.4315 21.7524C14.1715 22.1628 13.5665 23.307 13.046 24.3604C12.6582 25.2143 13.1684 25.7118 13.5952 25.7132C14.0217 25.7149 18.7391 25.7299 18.7391 25.7299L18.7571 21.087H15.9531C15.9531 21.087 14.8903 21.0299 14.4315 21.7524Z" fill="white"/>
<path d="M38.2936 16.7158H21.6852C20.9411 16.7158 20.2977 17.1499 19.9957 17.7786C19.8836 18.0119 19.7388 18.447 19.7388 18.5891V31.5941L30.1579 31.6024C30.1579 31.5994 30.1576 31.5964 30.1576 31.5941C30.1576 30.0144 31.4383 28.7341 33.018 28.7341C34.5973 28.7341 35.878 30.0144 35.878 31.5941C35.878 31.5984 35.8777 31.6024 35.8777 31.6071L38.2932 31.6091C39.3277 31.6091 40.1666 30.7702 40.1666 29.7358V18.5895C40.1669 17.5544 39.328 16.7158 38.2936 16.7158ZM32.404 23.6484C32.404 24.0448 32.0826 24.3658 31.6865 24.3658H30.5477V25.5047C30.5477 25.9011 30.2266 26.2218 29.8302 26.2218H29.3507C28.9543 26.2218 28.6333 25.9008 28.6333 25.5047V24.3658H27.4944C27.0983 24.3658 26.777 24.0445 26.777 23.6484V23.1686C26.777 22.7725 27.0983 22.4515 27.4944 22.4515H28.6333V21.3126C28.6333 20.9162 28.9546 20.5956 29.3507 20.5956H29.8302C30.2266 20.5956 30.5477 20.9166 30.5477 21.3126V22.4515H31.6865C32.0829 22.4515 32.404 22.7728 32.404 23.1686V23.6484Z" fill="#C8482B"/>
<path d="M33.0183 28.7109C31.4263 28.7109 30.1353 30.0013 30.1353 31.5936C30.1353 31.5966 30.1356 31.5993 30.1356 31.602C30.1403 33.1903 31.429 34.476 33.0183 34.476C34.6057 34.476 35.8934 33.1923 35.9007 31.6063C35.9007 31.602 35.9007 31.598 35.9007 31.5933C35.9004 30.0013 34.61 28.7109 33.0183 28.7109ZM33.0183 33.1256C32.1721 33.1256 31.4857 32.4395 31.4857 31.5933C31.4857 30.7471 32.1721 30.061 33.0183 30.061C33.8646 30.061 34.5506 30.7471 34.5506 31.5933C34.5506 32.4395 33.8646 33.1256 33.0183 33.1256Z" fill="#22262A"/>
<path d="M34.5872 31.5944C34.5872 30.7278 33.8845 30.0254 33.0182 30.0254C32.1516 30.0254 31.4492 30.7278 31.4492 31.5944C31.4492 32.4609 32.152 33.1633 33.0182 33.1633C33.8845 33.1633 34.5872 32.4606 34.5872 31.5944Z" fill="#303539"/>
<path d="M18.9675 16.9377C18.9675 16.5723 18.591 16.2764 18.1265 16.2764C17.6621 16.2764 17.2856 16.5727 17.2856 16.9377V17.7753H18.9671V16.9377H18.9675Z" fill="#C8482B"/>
<path d="M31.6864 22.4507H30.5475V21.3118C30.5475 20.9154 30.2265 20.5947 29.8301 20.5947H29.3506C28.9542 20.5947 28.6332 20.9157 28.6332 21.3118V22.4507H27.4943C27.0982 22.4507 26.7769 22.772 26.7769 23.1678V23.6476C26.7769 24.044 27.0982 24.365 27.4943 24.365H28.6332V25.5039C28.6332 25.9003 28.9545 26.221 29.3506 26.221H29.8301C30.2265 26.221 30.5475 25.9 30.5475 25.5039V24.365H31.6864C32.0829 24.365 32.4039 24.0437 32.4039 23.6476V23.1678C32.4042 22.772 32.0829 22.4507 31.6864 22.4507Z" fill="#F4F0E6"/>
</svg>
