<svg width="51" height="51" viewBox="0 0 51 51" fill="none" xmlns="http://www.w3.org/2000/svg">
<g opacity="0.8">
<path d="M0.5 25.4135C0.5 11.6062 11.6933 0.414062 25.4994 0.414062C39.3073 0.414062 50.4994 11.6062 50.4994 25.4135C50.4994 39.2208 39.3073 50.4141 25.4994 50.4141C11.6933 50.4141 0.5 39.2208 0.5 25.4135Z" fill="#D49F34" fill-opacity="0.25"/>
<path d="M29.5462 26.8672C32.0103 24.5498 35.0682 21.6704 35.4891 19.1088C35.7841 17.2988 35.4964 15.8045 34.6321 14.6709C33.76 13.5261 32.4346 12.8737 30.5767 12.6746C30.3983 12.6562 30.2354 12.6484 30.0732 12.6484C28.7589 12.6484 27.4335 13.1363 26.4142 13.9638C25.3966 13.1363 24.0701 12.6484 22.7575 12.6484C22.5941 12.6484 22.4329 12.6562 22.2534 12.6746C20.3955 12.8737 19.0684 13.5261 18.1974 14.6709C17.3331 15.8045 17.046 17.2988 17.3404 19.1088C17.7614 21.6715 20.8192 24.5498 23.2838 26.8672C23.2838 26.8672 24.5133 28.1023 24.8825 28.4179C25.1607 28.6566 25.7624 29.1355 26.4153 29.1355C27.0672 29.1355 27.6705 28.6566 27.9471 28.4179C28.3162 28.1023 29.5462 26.8672 29.5462 26.8672Z" fill="#B7402C"/>
<path d="M22.065 30.8561C21.9312 30.753 20.8678 29.9489 17.9181 29.7516C17.7564 29.7387 17.5919 29.6233 17.4481 29.5274C17.4129 29.5045 17.3778 29.4805 17.3427 29.4566C17.1938 29.3551 17.0477 29.2463 16.9351 29.1125C16.7098 28.8426 16.4544 28.6157 16.2397 28.3163C14.8067 26.3167 13.4004 25.9158 13.1908 25.8366C12.9114 25.7017 12.7207 25.6632 12.6588 25.472C12.6337 25.3839 12.3901 23.062 12.3466 22.6717C12.2256 21.5532 12.1057 20.7234 11.4645 20.4982C11.2994 20.4396 11.1817 20.4591 11.0591 20.5896C10.913 20.743 10.8271 21.5554 10.7847 22.0695C10.7847 22.0695 10.5428 25.0733 10.5717 26.1143C10.6002 27.1554 12.4018 31.3156 13.3675 32.287C14.3333 33.2572 18.8019 35.797 18.8019 35.797C18.9625 35.9309 19.8558 36.6184 19.8558 37.52V38.5348C19.8558 38.5348 19.7281 39.4761 20.758 39.4761C21.7884 39.4761 23.217 39.4794 24.2335 39.4794C25.2506 39.4794 25.0526 38.5616 25.0532 38.2399C25.0537 38.0101 25.0543 37.8284 25.0548 37.7414C25.0548 37.7063 25.0548 37.6867 25.0548 37.6867C25.0666 37.3544 25.1234 37.0243 25.1625 36.6959C25.2751 36.3178 25.1853 35.6047 25.1323 35.3281C24.5296 32.6349 22.307 31.0446 22.065 30.8561Z" fill="#D6C5AC"/>
<path d="M42.0436 22.0695C42.0018 21.5554 41.9154 20.743 41.7693 20.5896C41.6472 20.4591 41.5295 20.4396 41.3639 20.4982C40.7226 20.7234 40.6028 21.5537 40.4818 22.6717C40.4383 23.0615 40.1951 25.3833 40.1701 25.472C40.1082 25.6638 39.9169 25.7017 39.6381 25.8366C39.4279 25.9158 38.0222 26.3167 36.5886 28.3163C36.3734 28.6157 36.1185 28.8421 35.8933 29.1125C35.7812 29.2463 35.6346 29.3551 35.4862 29.4566C35.4511 29.4805 35.416 29.5045 35.3814 29.5274C35.237 29.6233 35.073 29.7387 34.9108 29.7516C31.9616 29.949 30.8983 30.7524 30.7639 30.8561C30.5214 31.0446 28.2993 32.6349 27.6954 35.3276C27.643 35.6041 27.5527 36.3173 27.6653 36.6953C27.7049 37.0243 27.7612 37.3544 27.773 37.6862C27.773 37.6862 27.7735 37.7057 27.7735 37.7408C27.7735 37.8278 27.7741 38.0096 27.7746 38.2393C27.7752 38.5605 27.5772 39.4789 28.5943 39.4789C29.6108 39.4789 31.0405 39.4755 32.0698 39.4755C33.0997 39.4755 32.972 38.5343 32.972 38.5343V37.5195C32.972 36.6178 33.8653 35.9303 34.0259 35.7965C34.0259 35.7965 38.8457 33.0185 39.4602 32.2864C40.0747 31.5537 42.1384 27.1297 42.2561 26.1138C42.3748 25.0995 42.0436 22.0695 42.0436 22.0695Z" fill="#D6C5AC"/>
</g>
</svg>
