<svg width="51" height="51" viewBox="0 0 51 51" fill="none" xmlns="http://www.w3.org/2000/svg">
<rect x="0.833496" y="0.414062" width="50" height="50" rx="25" fill="#D49F34" fill-opacity="0.25"/>
<path d="M14.7002 22.3626L20.3826 28.0458C20.3646 28.0015 20.3389 27.9612 20.3229 27.9151C20.2142 27.6066 20.1544 27.2752 20.1544 26.9291C20.1544 26.5727 20.2203 26.2317 20.3365 25.9139L18.3565 23.9349L18.3557 23.9357C18.1207 24.1416 17.7644 24.1349 17.5396 23.9101C17.3158 23.6862 17.3124 23.3306 17.5175 23.0956L15.6787 21.2568L15.4982 21.4354L15.5008 21.4379L15.4864 21.4517C15.1983 21.7405 14.942 22.0481 14.7002 22.3626Z" fill="#82BFAB"/>
<path d="M11.064 32.8505L18.6276 40.4136L19.7116 39.3301L20.3866 38.655C20.8497 38.3338 21.3915 38.1741 21.9323 38.1792C21.975 38.1792 22.0177 38.1826 22.0596 38.1851C22.5211 38.204 22.9833 38.18 23.4415 38.1142C24.4626 37.9689 25.4581 37.6133 26.3629 37.0511C25.7135 36.7794 25.094 36.4145 24.5257 35.9531L24.5126 35.9659L24.3481 35.8009C24.2079 35.6805 24.0712 35.5558 23.9379 35.4233C23.8055 35.2909 23.6811 35.1534 23.5602 35.014L20.1384 31.5917L20.144 31.5858L13.3669 24.8096C13.0318 25.7469 12.8446 26.7253 12.8259 27.7088C12.819 28.0866 12.8336 28.465 12.8729 28.8402C12.9097 29.1777 12.9643 29.5136 13.0379 29.8459C13.0182 30.503 12.7602 31.1543 12.2585 31.6558L11.064 32.8505Z" fill="#82BFAB"/>
<path d="M19.4111 21.2088L20.4573 20.1705L18.622 18.335L17.5752 19.3732L19.4111 21.2088Z" fill="#82BFAB"/>
<path d="M38.3263 21.5511L38.3161 21.5596L38.3076 21.5698L37.4199 22.4577C37.9461 23.285 38.3231 24.1779 38.5564 25.1008L40.1156 23.5413L40.2105 23.4551L40.2967 23.3593C40.7318 22.833 40.7042 22.0527 40.2112 21.5597C39.6909 21.0401 38.8498 21.0376 38.3263 21.5511Z" fill="#82BFAB"/>
<path d="M36.1814 20.9047C36.3003 21.0243 36.4059 21.1515 36.5173 21.2753L38.669 19.1238L38.7166 19.0803L38.7594 19.0323C38.9832 18.7863 39.0995 18.4778 39.1061 18.1668C39.1146 17.8138 38.9848 17.4592 38.7166 17.1908C38.4481 16.9216 38.0928 16.7927 37.7408 16.8012C37.4092 16.8081 37.0805 16.9379 36.8275 17.1908L36.7845 17.2388L36.7795 17.2336L34.6416 19.3716L36.1702 20.8883L36.1669 20.8908L36.1814 20.9047Z" fill="#82BFAB"/>
<path d="M32.8056 21.207L31.9683 22.0445L33.2556 23.3323L33.3117 23.3886C33.5466 23.5945 33.9037 23.5878 34.1277 23.363C34.3592 23.1322 34.3608 22.7589 34.1344 22.5247L34.1192 22.5093L32.8056 21.207Z" fill="#82BFAB"/>
<path d="M29.8168 15.1174C30.1329 15.1157 30.4174 15.2335 30.643 15.4207L32.775 13.2879L32.8228 13.2452L32.8655 13.1973C33.1005 12.94 33.2168 12.6145 33.215 12.2889C33.2116 11.9497 33.0818 11.6113 32.8228 11.3524C32.564 11.0935 32.2257 10.9636 31.8863 10.961C31.5496 10.9576 31.2134 11.0825 30.9524 11.3319L30.9301 11.3524L30.9097 11.3746L26.1074 16.1777L27.9972 18.067L28.8226 17.2407C28.6376 17.0178 28.5222 16.7358 28.5204 16.423C28.5188 15.7044 29.0981 15.12 29.8168 15.1174Z" fill="#82BFAB"/>
<path d="M34.5168 13.6265L34.4765 13.6727L31.6982 16.4507L33.5948 18.3332L36.3752 15.5526L36.4104 15.5201C36.9333 14.9972 36.9333 14.1496 36.4104 13.6265C35.8878 13.1037 35.0397 13.1037 34.5168 13.6265Z" fill="#82BFAB"/>
<path d="M20.8865 16.089L20.519 16.4532L22.3536 18.2885L22.7125 17.9323C22.9716 17.7007 23.1355 17.3665 23.1441 16.9939L21.8179 15.667C21.4646 15.6755 21.1462 15.8233 20.9164 16.0591L20.8865 16.089Z" fill="#82BFAB"/>
<path d="M23.1748 19.1099L24.1977 20.1328C24.6018 19.8217 25.0248 19.5475 25.4633 19.3125L24.2173 18.0674L23.3774 18.9074L23.1748 19.1099Z" fill="#82BFAB"/>
<path d="M21.566 23.3642C21.7847 22.9131 22.0445 22.4746 22.3436 22.0568L21.2857 20.999L20.2432 22.0415L21.566 23.3642Z" fill="#82BFAB"/>
<path d="M30.9289 20.9992L31.7594 20.1685L29.8624 18.2861L29.0396 19.1097L30.9289 20.9992Z" fill="#82BFAB"/>
<path d="M23.5601 35.0144C23.681 35.1537 23.8054 35.2913 23.9378 35.4237C24.0711 35.5562 24.2078 35.6809 24.348 35.8013L24.5125 35.9663L24.5256 35.9535C25.0939 36.4149 25.7134 36.7798 26.3628 37.0515C26.9636 37.3036 27.59 37.477 28.2266 37.5677C28.6837 37.6334 29.146 37.6574 29.6074 37.6386C29.6501 37.6361 29.6928 37.6327 29.7347 37.6327C30.2764 37.6276 30.8173 37.7873 31.2804 38.1085L31.9555 38.7836L33.0398 39.8671L40.603 32.304L39.4073 31.1093C38.9068 30.6078 38.6488 29.9565 38.6298 29.2994C38.7027 28.9671 38.7582 28.6312 38.7938 28.2937C38.8322 27.9185 38.8487 27.5401 38.8408 27.1623C38.828 26.4685 38.7267 25.778 38.5558 25.1013C38.3225 24.1785 37.9455 23.2855 37.4194 22.4583C37.1561 22.0447 36.8534 21.6507 36.5169 21.2756C36.4054 21.1517 36.3 21.0245 36.1809 20.9049L36.1665 20.8911L36.1697 20.8886L34.6412 19.3719L33.5945 18.3336L31.6979 16.4511L30.7815 15.5419L30.7515 15.512C30.7182 15.4778 30.6797 15.4505 30.6429 15.4206C30.4173 15.2334 30.1329 15.1156 29.8167 15.1172C29.0981 15.1198 28.5187 15.7042 28.5203 16.423C28.5221 16.7357 28.6375 17.0177 28.8225 17.2407C28.8647 17.2912 28.9058 17.3416 28.9544 17.3852L29.8183 18.2422L29.8619 18.2859L31.7588 20.1682L32.8056 21.2073L34.1191 22.5096L34.1344 22.525C34.3608 22.7592 34.3591 23.1325 34.1276 23.3632C33.9036 23.588 33.5466 23.5948 33.3116 23.3889L33.2555 23.3326L31.9682 22.0447L31.7601 21.8372L31.7631 21.8337L30.9284 20.9989L29.0391 19.1094L28.2896 18.3602L27.9972 18.067L26.1073 16.1778L20.7564 10.8277L20.7368 10.8056L20.7154 10.785C20.4538 10.5356 20.1173 10.4107 19.7801 10.4141C19.4412 10.4167 19.1026 10.5466 18.8441 10.8056C18.5851 11.0644 18.4553 11.4029 18.4518 11.742C18.45 12.0676 18.5672 12.3931 18.8004 12.6505L18.8441 12.6983L18.8914 12.741L21.8177 15.6669L23.1439 16.9938L24.2171 18.067L25.4631 19.3121C25.0246 19.5471 24.6016 19.8214 24.1976 20.1324L23.1746 19.1095L22.3535 18.2884L20.5189 16.453L17.1906 13.1263L17.1504 13.0802C16.6275 12.5573 15.7797 12.5573 15.2568 13.0802C14.7329 13.6032 14.7339 14.4508 15.2568 14.9737L15.2927 15.0062L18.6219 18.3353L20.4574 20.1708L21.2855 20.9989L22.3434 22.0566C22.0443 22.4745 21.7845 22.9129 21.5658 23.364L20.2429 22.0413L19.4111 21.209L17.5753 19.3735L14.8882 16.6869L14.8844 16.6921L14.8409 16.6441C14.5878 16.3912 14.2579 16.2614 13.9265 16.2545C13.5735 16.246 13.2197 16.3749 12.9506 16.6441C12.6822 16.9125 12.5533 17.2671 12.561 17.62C12.5679 17.9311 12.6832 18.2395 12.9079 18.4855L12.9506 18.5335L12.9985 18.5771L15.6783 21.2568L17.5172 23.0956L18.3562 23.9348L20.3362 25.9138C20.7523 24.7739 21.8439 23.9562 23.1254 23.9562C24.3284 23.9562 25.3658 24.6748 25.8341 25.7037C26.3015 24.6748 27.3389 23.9562 28.5411 23.9562C30.1802 23.9562 31.5137 25.29 31.5137 26.929C31.5137 27.2827 31.4515 27.622 31.3372 27.9374C31.1884 28.35 30.9492 28.7217 30.644 29.0269V29.0277L25.9422 33.6993L25.8404 33.7412L25.7391 33.6993L21.2059 29.196C21.0873 29.0943 20.9752 28.9842 20.8739 28.8662C20.6659 28.6243 20.5052 28.345 20.3823 28.0459L14.6998 22.3626L13.3607 21.0235L13.3514 21.0133L13.3412 21.0048C12.8173 20.4912 11.9764 20.4937 11.457 21.0133C10.9644 21.5063 10.9353 22.2865 11.3706 22.8129L11.457 22.9087L11.5518 22.9949L13.3669 24.8099L20.1439 31.5862L20.1383 31.592L23.5601 35.0144Z" fill="#616E7D"/>
<path d="M25.8343 25.7036C25.366 24.6747 24.3286 23.9561 23.1255 23.9561C21.8441 23.9561 20.7525 24.7738 20.3364 25.9137C20.2202 26.2315 20.1543 26.5725 20.1543 26.929C20.1543 27.275 20.2141 27.6065 20.3227 27.9149C20.3388 27.9611 20.3645 28.0013 20.3825 28.0457C20.5054 28.3448 20.6662 28.6241 20.8742 28.866C20.9754 28.984 21.0875 29.0941 21.2061 29.1958L25.7393 33.6991L25.8407 33.741L25.9424 33.6991L30.6442 29.0276V29.0268C30.9493 28.7216 31.1886 28.3498 31.3373 27.9372C31.4517 27.6219 31.5138 27.2825 31.5138 26.9289C31.5138 25.2899 30.1803 23.9561 28.5413 23.9561C27.339 23.9561 26.3016 24.6747 25.8343 25.7036Z" fill="#AAD4C8"/>
</svg>
