<svg width="55" height="54" viewBox="0 0 55 54" fill="none" xmlns="http://www.w3.org/2000/svg">
<path d="M36.5 36L27.5 27L18.5 36" stroke="black" stroke-width="4.5" stroke-linecap="round" stroke-linejoin="round"/>
<path d="M27.5 27V47.25" stroke="black" stroke-width="2.5" stroke-linecap="round" stroke-linejoin="round"/>
<path d="M46.3775 41.3775C48.5721 40.1811 50.3057 38.2879 51.3048 35.9969C52.3039 33.7058 52.5115 31.1472 51.895 28.725C51.2785 26.3028 49.8729 24.1549 47.9001 22.6202C45.9272 21.0856 43.4995 20.2516 41 20.25H38.165C37.484 17.6158 36.2147 15.1702 34.4524 13.0972C32.6902 11.0242 30.4809 9.37763 27.9908 8.28133C25.5006 7.18503 22.7943 6.66752 20.0753 6.7677C17.3563 6.86788 14.6954 7.58314 12.2927 8.85971C9.88993 10.1363 7.80783 11.9409 6.20293 14.138C4.59803 16.3351 3.51209 18.8674 3.02674 21.5446C2.54139 24.2218 2.66927 26.9742 3.40076 29.5948C4.13226 32.2154 5.44833 34.6362 7.25004 36.675" stroke="black" stroke-width="2.5" stroke-linecap="round" stroke-linejoin="round"/>
<path d="M36.5 36L27.5 27L18.5 36" stroke="black" stroke-width="2.5" stroke-linecap="round" stroke-linejoin="round"/>
</svg>
